<?xml version="1.0" encoding="UTF-8" standalone="no"?>
<!-- Created with Inkscape (http://www.inkscape.org/) -->
<svg xmlns:rdf="http://www.w3.org/1999/02/22-rdf-syntax-ns#" xmlns="http://www.w3.org/2000/svg" height="240" width="240" version="1.1" xmlns:cc="http://creativecommons.org/ns#" xmlns:dc="http://purl.org/dc/elements/1.1/">
<defs></defs>
<metadata>
<rdf:RDF>
<cc:Work rdf:about="">
<dc:format>image/svg+xml</dc:format>
<dc:type rdf:resource="http://purl.org/dc/dcmitype/StillImage"/>
<dc:title/>
</cc:Work>
</rdf:RDF>
</metadata>
<g transform="translate(0,-812.36218)">
<path fill="#000" d="m159.35,974.4c3.465-3.2343,6.4547-6.8157,8.9531-10.663l-8.7448-7.7616c1.627-2.7274,2.9355-5.6036,3.9589-8.571l11.575,1.692c1.3526-4.4611,2.163-9.0608,2.4107-13.713l-11.445-2.348c0.049-3.1373-0.21882-6.2856-0.81645-9.3985l10.856-4.3196c-1.0374-4.4724-2.6341-8.8641-4.7849-13.078l-11.067,3.687c-0.87849-1.5716-1.8526-3.1142-2.9351-4.608-0.79098-1.0916-1.6283-2.1306-2.4939-3.1318l7.2451-9.1787c-3.2307-3.4613-6.8353-6.4456-10.678-8.9425l-7.7468,8.7343c-2.7283-1.6278-5.6132-2.95-8.5817-3.9736l1.692-11.575c-4.4577-1.351-9.0687-2.1375-13.717-2.3854l-2.3439,11.419c-3.1411-0.0491-6.2966,0.22797-9.4132,0.82706l-4.3196-10.856c-4.4774,1.0386-8.8598,2.6305-13.078,4.7848l3.6871,11.068c-1.5695,0.87754-3.0909,1.858-4.5827,2.939-1.0944,0.79302-2.1539,1.6216-3.1572,2.4899l-9.1681-7.2304c-3.4641,3.2335-6.455,6.8169-8.9531,10.663l8.7448,7.7616c-1.627,2.7274-2.9355,5.6036-3.9589,8.571l-11.601-1.696c-1.351,4.4576-2.1375,9.0686-2.3853,13.717l11.445,2.348c-0.04899,3.1373,0.21882,6.2856,0.81645,9.3985l-10.871,4.3303c1.0375,4.4725,2.634,8.864,4.7849,13.078l11.093-3.683c0.87625,1.5662,1.8455,3.1045,2.9244,4.5934,0.79093,1.0915,1.6284,2.1305,2.4939,3.1317l-7.2451,9.1788c3.2302,3.4608,6.8212,6.4565,10.663,8.9531l7.7616-8.7449c2.7253,1.6259,5.602,2.9611,8.5669,3.9843l-1.6879,11.55c4.4609,1.3528,9.0609,2.1625,13.713,2.4106l2.3439-11.419c3.1433,0.0501,6.2984-0.25345,9.4173-0.85248l4.3156,10.881c4.4783-1.0388,8.8737-2.6404,13.093-4.7956l-3.687-11.067c1.5694-0.8776,3.1056-1.8688,4.5974-2.9498,1.0944-0.793,2.1389-1.6112,3.1424-2.4792l9.1681,7.2304zm-32.528-32.621c-5.203,3.7703-12.477,2.6089-16.248-2.5941-3.7703-5.2031-2.6088-12.477,2.5942-16.248,5.203-3.7703,12.477-2.6089,16.248,2.5942,3.7703,5.203,2.6088,12.477-2.5942,16.248z"/>
</g>
</svg>
